<?xml version="1.0" encoding="UTF-8" standalone="no"?>
<!DOCTYPE svg PUBLIC "-//W3C//DTD SVG 1.1//EN"
 "http://www.w3.org/Graphics/SVG/1.1/DTD/svg11.dtd">
<!-- Generated by graphviz version 2.47.1 (20210417.1919)
 -->
<!-- Title: HelpDesk Pages: 1 -->
<svg width="367pt" height="188pt"
 viewBox="0.00 0.00 367.00 188.00" xmlns="http://www.w3.org/2000/svg" xmlns:xlink="http://www.w3.org/1999/xlink">
<g id="graph0" class="graph" transform="scale(1 1) rotate(0) translate(4 184)">
<title>HelpDesk</title>
<polygon fill="white" stroke="transparent" points="-4,4 -4,-184 363,-184 363,4 -4,4"/>
<!-- HomeScreen -->
<g id="node1" class="node">
<title>HomeScreen</title>
<polygon fill="none" stroke="black" points="301.5,-180 205.5,-180 205.5,-144 301.5,-144 301.5,-180"/>
<text text-anchor="start" x="217.35" y="-157.4" font-family="Times New Roman,serif" font-size="14.00">HomeScreen</text>
</g>
<!-- UserScreen -->
<g id="node2" class="node">
<title>UserScreen</title>
<polygon fill="none" stroke="black" points="186.5,-108 98.5,-108 98.5,-72 186.5,-72 186.5,-108"/>
<text text-anchor="start" x="110.24" y="-85.4" font-family="Times New Roman,serif" font-size="14.00">UserScreen</text>
</g>
<!-- HomeScreen&#45;&gt;UserScreen -->
<g id="edge1" class="edge">
<title>HomeScreen&#45;&gt;UserScreen</title>
<path fill="none" stroke="black" d="M220.45,-143.88C205.12,-134.81 187.12,-123.55 172.22,-113.76"/>
<polygon fill="black" stroke="black" points="174.12,-110.82 163.85,-108.19 170.24,-116.64 174.12,-110.82"/>
</g>
<!-- AdminScreen -->
<g id="node3" class="node">
<title>AdminScreen</title>
<polygon fill="none" stroke="black" points="342.5,-108 242.5,-108 242.5,-72 342.5,-72 342.5,-108"/>
<text text-anchor="start" x="254.01" y="-85.4" font-family="Times New Roman,serif" font-size="14.00">AdminScreen</text>
</g>
<!-- HomeScreen&#45;&gt;AdminScreen -->
<g id="edge2" class="edge">
<title>HomeScreen&#45;&gt;AdminScreen</title>
<path fill="none" stroke="black" d="M257.22,-143.7C260.92,-135.56 266.21,-125.69 271.65,-116.7"/>
<polygon fill="black" stroke="black" points="274.7,-118.43 277.08,-108.1 268.78,-114.69 274.7,-118.43"/>
</g>
<!-- UserScreen&#45;&gt;HomeScreen -->
<g id="edge4" class="edge">
<title>UserScreen&#45;&gt;HomeScreen</title>
<path fill="none" stroke="black" d="M175.66,-108.19C191,-117.27 209.01,-128.53 223.89,-138.31"/>
<polygon fill="black" stroke="black" points="221.98,-141.25 232.24,-143.88 225.86,-135.42 221.98,-141.25"/>
</g>
<!-- UserReviewForm -->
<g id="node4" class="node">
<title>UserReviewForm</title>
<polygon fill="none" stroke="black" points="123,-36 0,-36 0,0 123,0 123,-36"/>
<text text-anchor="start" x="12.24" y="-13.4" font-family="Times New Roman,serif" font-size="14.00">UserReviewForm</text>
</g>
<!-- UserScreen&#45;&gt;UserReviewForm -->
<g id="edge3" class="edge">
<title>UserScreen&#45;&gt;UserReviewForm</title>
<path fill="none" stroke="black" d="M116.56,-71.7C105.66,-63.05 93.22,-52.45 82.86,-43.03"/>
<polygon fill="black" stroke="black" points="85.11,-40.34 75.4,-36.1 80.35,-45.47 85.11,-40.34"/>
</g>
<!-- UserNewForm -->
<g id="node5" class="node">
<title>UserNewForm</title>
<polygon fill="none" stroke="black" points="248,-36 141,-36 141,0 248,0 248,-36"/>
<text text-anchor="start" x="153.41" y="-13.4" font-family="Times New Roman,serif" font-size="14.00">UserNewForm</text>
</g>
<!-- UserScreen&#45;&gt;UserNewForm -->
<g id="edge5" class="edge">
<title>UserScreen&#45;&gt;UserNewForm</title>
<path fill="none" stroke="black" d="M149.44,-71.7C154.81,-63.3 162.22,-53.07 169.54,-43.86"/>
<polygon fill="black" stroke="black" points="172.27,-46.06 175.9,-36.1 166.85,-41.62 172.27,-46.06"/>
</g>
<!-- AdminScreen&#45;&gt;HomeScreen -->
<g id="edge9" class="edge">
<title>AdminScreen&#45;&gt;HomeScreen</title>
<path fill="none" stroke="black" d="M288.87,-108.1C285.2,-116.21 279.92,-126.08 274.49,-135.08"/>
<polygon fill="black" stroke="black" points="271.43,-133.37 269.06,-143.7 277.35,-137.1 271.43,-133.37"/>
</g>
<!-- AdminForm -->
<g id="node6" class="node">
<title>AdminForm</title>
<polygon fill="none" stroke="black" points="359,-36 266,-36 266,0 359,0 359,-36"/>
<text text-anchor="start" x="278.39" y="-13.4" font-family="Times New Roman,serif" font-size="14.00">AdminForm</text>
</g>
<!-- AdminScreen&#45;&gt;AdminForm -->
<g id="edge8" class="edge">
<title>AdminScreen&#45;&gt;AdminForm</title>
<path fill="none" stroke="black" d="M291.53,-71.7C292.97,-63.81 295.47,-54.3 298.34,-45.55"/>
<polygon fill="black" stroke="black" points="301.65,-46.7 301.72,-36.1 295.06,-44.34 301.65,-46.7"/>
</g>
<!-- UserReviewForm&#45;&gt;UserScreen -->
<g id="edge12" class="edge">
<title>UserReviewForm&#45;&gt;UserScreen</title>
<path fill="none" stroke="black" d="M87.19,-36.1C98.06,-44.72 110.51,-55.32 120.9,-64.76"/>
<polygon fill="black" stroke="black" points="118.68,-67.47 128.39,-71.7 123.44,-62.33 118.68,-67.47"/>
</g>
<!-- UserNewForm&#45;&gt;HomeScreen -->
<g id="edge6" class="edge">
<title>UserNewForm&#45;&gt;HomeScreen</title>
<path fill="none" stroke="black" d="M201.64,-36.19C211.8,-60.64 230.51,-105.67 242.46,-134.44"/>
<polygon fill="black" stroke="black" points="239.31,-135.98 246.38,-143.87 245.78,-133.29 239.31,-135.98"/>
</g>
<!-- UserNewForm&#45;&gt;UserScreen -->
<g id="edge7" class="edge">
<title>UserNewForm&#45;&gt;UserScreen</title>
<path fill="none" stroke="black" d="M187.69,-36.1C182.35,-44.47 174.96,-54.69 167.63,-63.92"/>
<polygon fill="black" stroke="black" points="164.89,-61.74 161.27,-71.7 170.31,-66.17 164.89,-61.74"/>
</g>
<!-- AdminForm&#45;&gt;HomeScreen -->
<g id="edge10" class="edge">
<title>AdminForm&#45;&gt;HomeScreen</title>
<path fill="none" stroke="black" d="M329.48,-36.01C345.68,-54.39 365.67,-84.23 351.5,-108 342.31,-123.42 326.91,-134.62 311,-142.64"/>
<polygon fill="black" stroke="black" points="309.22,-139.61 301.62,-147 312.17,-145.96 309.22,-139.61"/>
</g>
<!-- AdminForm&#45;&gt;AdminScreen -->
<g id="edge11" class="edge">
<title>AdminForm&#45;&gt;AdminScreen</title>
<path fill="none" stroke="black" d="M313.51,-36.1C312.09,-43.96 309.6,-53.46 306.73,-62.23"/>
<polygon fill="black" stroke="black" points="303.42,-61.1 303.36,-71.7 310.01,-63.45 303.42,-61.1"/>
</g>
</g>
</svg>
